<mxfile host="app.diagrams.net" modified="2023-12-01T20:02:13.469Z" agent="Mozilla/5.0 (Macintosh; Intel Mac OS X 10_15_7) AppleWebKit/605.1.15 (KHTML, like Gecko) Version/17.1 Safari/605.1.15" etag="mHg5Mm3fKW1MBRpOj9lJ" version="22.1.5" type="device">
  <diagram name="Page-1" id="BV2s16-m9y-70ILgqXgt">
    <mxGraphModel dx="914" dy="634" grid="1" gridSize="10" guides="1" tooltips="1" connect="1" arrows="1" fold="1" page="1" pageScale="1" pageWidth="850" pageHeight="1100" math="0" shadow="0">
      <root>
        <mxCell id="0" />
        <mxCell id="1" parent="0" />
        <mxCell id="ORjHhZrfhUxpYeq6ZZD1-61" value="" style="group" vertex="1" connectable="0" parent="1">
          <mxGeometry x="80" y="80" width="240" height="240" as="geometry" />
        </mxCell>
        <mxCell id="ORjHhZrfhUxpYeq6ZZD1-1" value="" style="rounded=0;whiteSpace=wrap;html=1;align=center;" vertex="1" parent="ORjHhZrfhUxpYeq6ZZD1-61">
          <mxGeometry width="240" height="240" as="geometry" />
        </mxCell>
        <mxCell id="ORjHhZrfhUxpYeq6ZZD1-15" value="" style="childLayout=tableLayout;recursiveResize=0;shadow=0;fillColor=none;" vertex="1" parent="ORjHhZrfhUxpYeq6ZZD1-61">
          <mxGeometry x="20" y="40" width="200" height="160" as="geometry" />
        </mxCell>
        <mxCell id="ORjHhZrfhUxpYeq6ZZD1-57" style="shape=tableRow;horizontal=0;startSize=0;swimlaneHead=0;swimlaneBody=0;top=0;left=0;bottom=0;right=0;dropTarget=0;collapsible=0;recursiveResize=0;expand=0;fontStyle=0;fillColor=none;strokeColor=inherit;" vertex="1" parent="ORjHhZrfhUxpYeq6ZZD1-15">
          <mxGeometry width="200" height="30" as="geometry" />
        </mxCell>
        <mxCell id="ORjHhZrfhUxpYeq6ZZD1-58" value="Order ID" style="connectable=0;recursiveResize=0;strokeColor=#82b366;fillColor=#d5e8d4;align=center;whiteSpace=wrap;html=1;fontStyle=1" vertex="1" parent="ORjHhZrfhUxpYeq6ZZD1-57">
          <mxGeometry width="100" height="30" as="geometry">
            <mxRectangle width="100" height="30" as="alternateBounds" />
          </mxGeometry>
        </mxCell>
        <mxCell id="ORjHhZrfhUxpYeq6ZZD1-59" value="Order Time" style="connectable=0;recursiveResize=0;strokeColor=#6c8ebf;fillColor=#dae8fc;align=center;whiteSpace=wrap;html=1;fontStyle=1" vertex="1" parent="ORjHhZrfhUxpYeq6ZZD1-57">
          <mxGeometry x="100" width="100" height="30" as="geometry">
            <mxRectangle width="100" height="30" as="alternateBounds" />
          </mxGeometry>
        </mxCell>
        <mxCell id="ORjHhZrfhUxpYeq6ZZD1-20" style="shape=tableRow;horizontal=0;startSize=0;swimlaneHead=0;swimlaneBody=0;top=0;left=0;bottom=0;right=0;dropTarget=0;collapsible=0;recursiveResize=0;expand=0;fontStyle=0;fillColor=none;strokeColor=inherit;" vertex="1" parent="ORjHhZrfhUxpYeq6ZZD1-15">
          <mxGeometry y="30" width="200" height="21" as="geometry" />
        </mxCell>
        <mxCell id="ORjHhZrfhUxpYeq6ZZD1-21" value="34139" style="connectable=0;recursiveResize=0;strokeColor=#A50040;fillColor=#d80073;align=center;whiteSpace=wrap;html=1;fontColor=#ffffff;" vertex="1" parent="ORjHhZrfhUxpYeq6ZZD1-20">
          <mxGeometry width="100" height="21" as="geometry">
            <mxRectangle width="100" height="21" as="alternateBounds" />
          </mxGeometry>
        </mxCell>
        <mxCell id="ORjHhZrfhUxpYeq6ZZD1-22" value="timestamp 1" style="connectable=0;recursiveResize=0;strokeColor=#A50040;fillColor=#d80073;align=center;whiteSpace=wrap;html=1;fontColor=#ffffff;" vertex="1" parent="ORjHhZrfhUxpYeq6ZZD1-20">
          <mxGeometry x="100" width="100" height="21" as="geometry">
            <mxRectangle width="100" height="21" as="alternateBounds" />
          </mxGeometry>
        </mxCell>
        <mxCell id="ORjHhZrfhUxpYeq6ZZD1-16" value="" style="shape=tableRow;horizontal=0;startSize=0;swimlaneHead=0;swimlaneBody=0;top=0;left=0;bottom=0;right=0;dropTarget=0;collapsible=0;recursiveResize=0;expand=0;fontStyle=0;fillColor=none;strokeColor=inherit;" vertex="1" parent="ORjHhZrfhUxpYeq6ZZD1-15">
          <mxGeometry y="51" width="200" height="22" as="geometry" />
        </mxCell>
        <mxCell id="ORjHhZrfhUxpYeq6ZZD1-17" value="&lt;span style=&quot;&quot;&gt;121900&lt;/span&gt;" style="connectable=0;recursiveResize=0;strokeColor=#82b366;fillColor=#d5e8d4;align=center;whiteSpace=wrap;html=1;labelBackgroundColor=none;" vertex="1" parent="ORjHhZrfhUxpYeq6ZZD1-16">
          <mxGeometry width="100" height="22" as="geometry">
            <mxRectangle width="100" height="22" as="alternateBounds" />
          </mxGeometry>
        </mxCell>
        <mxCell id="ORjHhZrfhUxpYeq6ZZD1-18" value="timestamp 2" style="connectable=0;recursiveResize=0;strokeColor=#6c8ebf;fillColor=#dae8fc;align=center;whiteSpace=wrap;html=1;" vertex="1" parent="ORjHhZrfhUxpYeq6ZZD1-16">
          <mxGeometry x="100" width="100" height="22" as="geometry">
            <mxRectangle width="100" height="22" as="alternateBounds" />
          </mxGeometry>
        </mxCell>
        <mxCell id="ORjHhZrfhUxpYeq6ZZD1-24" style="shape=tableRow;horizontal=0;startSize=0;swimlaneHead=0;swimlaneBody=0;top=0;left=0;bottom=0;right=0;dropTarget=0;collapsible=0;recursiveResize=0;expand=0;fontStyle=0;fillColor=none;strokeColor=inherit;" vertex="1" parent="ORjHhZrfhUxpYeq6ZZD1-15">
          <mxGeometry y="73" width="200" height="22" as="geometry" />
        </mxCell>
        <mxCell id="ORjHhZrfhUxpYeq6ZZD1-25" value="42112" style="connectable=0;recursiveResize=0;strokeColor=#82b366;fillColor=#d5e8d4;align=center;whiteSpace=wrap;html=1;" vertex="1" parent="ORjHhZrfhUxpYeq6ZZD1-24">
          <mxGeometry width="100" height="22" as="geometry">
            <mxRectangle width="100" height="22" as="alternateBounds" />
          </mxGeometry>
        </mxCell>
        <mxCell id="ORjHhZrfhUxpYeq6ZZD1-26" value="timestamp 3" style="connectable=0;recursiveResize=0;strokeColor=#6c8ebf;fillColor=#dae8fc;align=center;whiteSpace=wrap;html=1;" vertex="1" parent="ORjHhZrfhUxpYeq6ZZD1-24">
          <mxGeometry x="100" width="100" height="22" as="geometry">
            <mxRectangle width="100" height="22" as="alternateBounds" />
          </mxGeometry>
        </mxCell>
        <mxCell id="ORjHhZrfhUxpYeq6ZZD1-34" style="shape=tableRow;horizontal=0;startSize=0;swimlaneHead=0;swimlaneBody=0;top=0;left=0;bottom=0;right=0;dropTarget=0;collapsible=0;recursiveResize=0;expand=0;fontStyle=0;fillColor=none;strokeColor=inherit;" vertex="1" parent="ORjHhZrfhUxpYeq6ZZD1-15">
          <mxGeometry y="95" width="200" height="21" as="geometry" />
        </mxCell>
        <mxCell id="ORjHhZrfhUxpYeq6ZZD1-35" value="44555" style="connectable=0;recursiveResize=0;strokeColor=#82b366;fillColor=#d5e8d4;align=center;whiteSpace=wrap;html=1;" vertex="1" parent="ORjHhZrfhUxpYeq6ZZD1-34">
          <mxGeometry width="100" height="21" as="geometry">
            <mxRectangle width="100" height="21" as="alternateBounds" />
          </mxGeometry>
        </mxCell>
        <mxCell id="ORjHhZrfhUxpYeq6ZZD1-36" value="timestamp 4" style="connectable=0;recursiveResize=0;strokeColor=#6c8ebf;fillColor=#dae8fc;align=center;whiteSpace=wrap;html=1;" vertex="1" parent="ORjHhZrfhUxpYeq6ZZD1-34">
          <mxGeometry x="100" width="100" height="21" as="geometry">
            <mxRectangle width="100" height="21" as="alternateBounds" />
          </mxGeometry>
        </mxCell>
        <mxCell id="ORjHhZrfhUxpYeq6ZZD1-31" style="shape=tableRow;horizontal=0;startSize=0;swimlaneHead=0;swimlaneBody=0;top=0;left=0;bottom=0;right=0;dropTarget=0;collapsible=0;recursiveResize=0;expand=0;fontStyle=0;fillColor=none;strokeColor=inherit;" vertex="1" parent="ORjHhZrfhUxpYeq6ZZD1-15">
          <mxGeometry y="116" width="200" height="22" as="geometry" />
        </mxCell>
        <mxCell id="ORjHhZrfhUxpYeq6ZZD1-32" value="29900" style="connectable=0;recursiveResize=0;strokeColor=#82b366;fillColor=#d5e8d4;align=center;whiteSpace=wrap;html=1;" vertex="1" parent="ORjHhZrfhUxpYeq6ZZD1-31">
          <mxGeometry width="100" height="22" as="geometry">
            <mxRectangle width="100" height="22" as="alternateBounds" />
          </mxGeometry>
        </mxCell>
        <mxCell id="ORjHhZrfhUxpYeq6ZZD1-33" value="timestamp 5" style="connectable=0;recursiveResize=0;strokeColor=#6c8ebf;fillColor=#dae8fc;align=center;whiteSpace=wrap;html=1;" vertex="1" parent="ORjHhZrfhUxpYeq6ZZD1-31">
          <mxGeometry x="100" width="100" height="22" as="geometry">
            <mxRectangle width="100" height="22" as="alternateBounds" />
          </mxGeometry>
        </mxCell>
        <mxCell id="ORjHhZrfhUxpYeq6ZZD1-28" style="shape=tableRow;horizontal=0;startSize=0;swimlaneHead=0;swimlaneBody=0;top=0;left=0;bottom=0;right=0;dropTarget=0;collapsible=0;recursiveResize=0;expand=0;fontStyle=0;fillColor=none;strokeColor=inherit;" vertex="1" parent="ORjHhZrfhUxpYeq6ZZD1-15">
          <mxGeometry y="138" width="200" height="22" as="geometry" />
        </mxCell>
        <mxCell id="ORjHhZrfhUxpYeq6ZZD1-29" value="..." style="connectable=0;recursiveResize=0;strokeColor=#82b366;fillColor=#d5e8d4;align=center;whiteSpace=wrap;html=1;" vertex="1" parent="ORjHhZrfhUxpYeq6ZZD1-28">
          <mxGeometry width="100" height="22" as="geometry">
            <mxRectangle width="100" height="22" as="alternateBounds" />
          </mxGeometry>
        </mxCell>
        <mxCell id="ORjHhZrfhUxpYeq6ZZD1-30" value="..." style="connectable=0;recursiveResize=0;strokeColor=#6c8ebf;fillColor=#dae8fc;align=center;whiteSpace=wrap;html=1;" vertex="1" parent="ORjHhZrfhUxpYeq6ZZD1-28">
          <mxGeometry x="100" width="100" height="22" as="geometry">
            <mxRectangle width="100" height="22" as="alternateBounds" />
          </mxGeometry>
        </mxCell>
        <mxCell id="ORjHhZrfhUxpYeq6ZZD1-56" value="&lt;b&gt;Key: 12345&lt;/b&gt;" style="rounded=1;whiteSpace=wrap;html=1;fillColor=#f8cecc;strokeColor=#b85450;" vertex="1" parent="ORjHhZrfhUxpYeq6ZZD1-61">
          <mxGeometry x="20" y="10" width="80" height="20" as="geometry" />
        </mxCell>
        <mxCell id="ORjHhZrfhUxpYeq6ZZD1-60" value="&lt;font style=&quot;font-size: 14px;&quot;&gt;&lt;b&gt;ZSet&lt;/b&gt;&lt;/font&gt;" style="text;html=1;strokeColor=none;fillColor=none;align=center;verticalAlign=middle;whiteSpace=wrap;rounded=0;" vertex="1" parent="ORjHhZrfhUxpYeq6ZZD1-61">
          <mxGeometry x="90" y="210" width="60" height="30" as="geometry" />
        </mxCell>
        <mxCell id="ORjHhZrfhUxpYeq6ZZD1-88" value="" style="group" vertex="1" connectable="0" parent="1">
          <mxGeometry x="360" y="80" width="240" height="240" as="geometry" />
        </mxCell>
        <mxCell id="ORjHhZrfhUxpYeq6ZZD1-89" value="" style="rounded=0;whiteSpace=wrap;html=1;align=center;" vertex="1" parent="ORjHhZrfhUxpYeq6ZZD1-88">
          <mxGeometry width="240" height="240" as="geometry" />
        </mxCell>
        <mxCell id="ORjHhZrfhUxpYeq6ZZD1-112" value="&lt;b&gt;Key: 34139&lt;/b&gt;" style="rounded=1;whiteSpace=wrap;html=1;fillColor=#f8cecc;strokeColor=#b85450;" vertex="1" parent="ORjHhZrfhUxpYeq6ZZD1-88">
          <mxGeometry x="20" y="10" width="80" height="20" as="geometry" />
        </mxCell>
        <mxCell id="ORjHhZrfhUxpYeq6ZZD1-113" value="&lt;font style=&quot;font-size: 14px;&quot;&gt;&lt;b&gt;Hash&lt;/b&gt;&lt;/font&gt;" style="text;html=1;strokeColor=none;fillColor=none;align=center;verticalAlign=middle;whiteSpace=wrap;rounded=0;" vertex="1" parent="ORjHhZrfhUxpYeq6ZZD1-88">
          <mxGeometry x="90" y="210" width="60" height="30" as="geometry" />
        </mxCell>
        <mxCell id="ORjHhZrfhUxpYeq6ZZD1-37" value="" style="childLayout=tableLayout;recursiveResize=0;shadow=0;fillColor=none;" vertex="1" parent="ORjHhZrfhUxpYeq6ZZD1-88">
          <mxGeometry x="20" y="40" width="200" height="86" as="geometry" />
        </mxCell>
        <mxCell id="ORjHhZrfhUxpYeq6ZZD1-38" value="" style="shape=tableRow;horizontal=0;startSize=0;swimlaneHead=0;swimlaneBody=0;top=0;left=0;bottom=0;right=0;dropTarget=0;collapsible=0;recursiveResize=0;expand=0;fontStyle=0;fillColor=none;strokeColor=inherit;" vertex="1" parent="ORjHhZrfhUxpYeq6ZZD1-37">
          <mxGeometry width="200" height="22" as="geometry" />
        </mxCell>
        <mxCell id="ORjHhZrfhUxpYeq6ZZD1-39" value="&lt;span style=&quot;&quot;&gt;id&lt;/span&gt;" style="connectable=0;recursiveResize=0;strokeColor=#82b366;fillColor=#d5e8d4;align=center;whiteSpace=wrap;html=1;labelBackgroundColor=none;" vertex="1" parent="ORjHhZrfhUxpYeq6ZZD1-38">
          <mxGeometry width="100" height="22" as="geometry">
            <mxRectangle width="100" height="22" as="alternateBounds" />
          </mxGeometry>
        </mxCell>
        <mxCell id="ORjHhZrfhUxpYeq6ZZD1-40" value="34139" style="connectable=0;recursiveResize=0;strokeColor=#6c8ebf;fillColor=#dae8fc;align=center;whiteSpace=wrap;html=1;" vertex="1" parent="ORjHhZrfhUxpYeq6ZZD1-38">
          <mxGeometry x="100" width="100" height="22" as="geometry">
            <mxRectangle width="100" height="22" as="alternateBounds" />
          </mxGeometry>
        </mxCell>
        <mxCell id="ORjHhZrfhUxpYeq6ZZD1-44" style="shape=tableRow;horizontal=0;startSize=0;swimlaneHead=0;swimlaneBody=0;top=0;left=0;bottom=0;right=0;dropTarget=0;collapsible=0;recursiveResize=0;expand=0;fontStyle=0;fillColor=none;strokeColor=inherit;" vertex="1" parent="ORjHhZrfhUxpYeq6ZZD1-37">
          <mxGeometry y="22" width="200" height="22" as="geometry" />
        </mxCell>
        <mxCell id="ORjHhZrfhUxpYeq6ZZD1-45" value="user id" style="connectable=0;recursiveResize=0;strokeColor=#82b366;fillColor=#d5e8d4;align=center;whiteSpace=wrap;html=1;" vertex="1" parent="ORjHhZrfhUxpYeq6ZZD1-44">
          <mxGeometry width="100" height="22" as="geometry">
            <mxRectangle width="100" height="22" as="alternateBounds" />
          </mxGeometry>
        </mxCell>
        <mxCell id="ORjHhZrfhUxpYeq6ZZD1-46" value="12345" style="connectable=0;recursiveResize=0;strokeColor=#6c8ebf;fillColor=#dae8fc;align=center;whiteSpace=wrap;html=1;" vertex="1" parent="ORjHhZrfhUxpYeq6ZZD1-44">
          <mxGeometry x="100" width="100" height="22" as="geometry">
            <mxRectangle width="100" height="22" as="alternateBounds" />
          </mxGeometry>
        </mxCell>
        <mxCell id="ORjHhZrfhUxpYeq6ZZD1-41" style="shape=tableRow;horizontal=0;startSize=0;swimlaneHead=0;swimlaneBody=0;top=0;left=0;bottom=0;right=0;dropTarget=0;collapsible=0;recursiveResize=0;expand=0;fontStyle=0;fillColor=none;strokeColor=inherit;" vertex="1" parent="ORjHhZrfhUxpYeq6ZZD1-37">
          <mxGeometry y="44" width="200" height="21" as="geometry" />
        </mxCell>
        <mxCell id="ORjHhZrfhUxpYeq6ZZD1-42" value="product" style="connectable=0;recursiveResize=0;strokeColor=#82b366;fillColor=#d5e8d4;align=center;whiteSpace=wrap;html=1;" vertex="1" parent="ORjHhZrfhUxpYeq6ZZD1-41">
          <mxGeometry width="100" height="21" as="geometry">
            <mxRectangle width="100" height="21" as="alternateBounds" />
          </mxGeometry>
        </mxCell>
        <mxCell id="ORjHhZrfhUxpYeq6ZZD1-43" value="apple" style="connectable=0;recursiveResize=0;strokeColor=#6c8ebf;fillColor=#dae8fc;align=center;whiteSpace=wrap;html=1;" vertex="1" parent="ORjHhZrfhUxpYeq6ZZD1-41">
          <mxGeometry x="100" width="100" height="21" as="geometry">
            <mxRectangle width="100" height="21" as="alternateBounds" />
          </mxGeometry>
        </mxCell>
        <mxCell id="ORjHhZrfhUxpYeq6ZZD1-47" style="shape=tableRow;horizontal=0;startSize=0;swimlaneHead=0;swimlaneBody=0;top=0;left=0;bottom=0;right=0;dropTarget=0;collapsible=0;recursiveResize=0;expand=0;fontStyle=0;fillColor=none;strokeColor=inherit;" vertex="1" parent="ORjHhZrfhUxpYeq6ZZD1-37">
          <mxGeometry y="65" width="200" height="21" as="geometry" />
        </mxCell>
        <mxCell id="ORjHhZrfhUxpYeq6ZZD1-48" value="quantity" style="connectable=0;recursiveResize=0;strokeColor=#82b366;fillColor=#d5e8d4;align=center;whiteSpace=wrap;html=1;" vertex="1" parent="ORjHhZrfhUxpYeq6ZZD1-47">
          <mxGeometry width="100" height="21" as="geometry">
            <mxRectangle width="100" height="21" as="alternateBounds" />
          </mxGeometry>
        </mxCell>
        <mxCell id="ORjHhZrfhUxpYeq6ZZD1-49" value="10" style="connectable=0;recursiveResize=0;strokeColor=#6c8ebf;fillColor=#dae8fc;align=center;whiteSpace=wrap;html=1;" vertex="1" parent="ORjHhZrfhUxpYeq6ZZD1-47">
          <mxGeometry x="100" width="100" height="21" as="geometry">
            <mxRectangle width="100" height="21" as="alternateBounds" />
          </mxGeometry>
        </mxCell>
        <mxCell id="ORjHhZrfhUxpYeq6ZZD1-114" value="" style="endArrow=classic;html=1;rounded=0;fillColor=#d80073;strokeColor=#A50040;exitX=1;exitY=0.25;exitDx=0;exitDy=0;entryX=0;entryY=0.5;entryDx=0;entryDy=0;" edge="1" parent="1" source="ORjHhZrfhUxpYeq6ZZD1-15" target="ORjHhZrfhUxpYeq6ZZD1-44">
          <mxGeometry width="50" height="50" relative="1" as="geometry">
            <mxPoint x="170" y="440" as="sourcePoint" />
            <mxPoint x="220" y="390" as="targetPoint" />
          </mxGeometry>
        </mxCell>
      </root>
    </mxGraphModel>
  </diagram>
</mxfile>
